<svg viewBox="0 0 330 200" xmlns="http://www.w3.org/2000/svg"><g><g><g><g><g><line x1="46.96000289916992" y1="162.02666524251305" x2="41.96000289916992" y2="162.02666524251305" style="visibility: inherit;" fill="rgb(0, 0, 0)" stroke="rgb(204, 204, 204)" stroke-width="1px"></line><line x1="46.96000289916992" y1="150.45333201090494" x2="41.96000289916992" y2="150.45333201090494" style="visibility: inherit;" fill="rgb(0, 0, 0)" stroke="rgb(204, 204, 204)" stroke-width="1px"></line><line x1="46.96000289916992" y1="138.87999877929687" x2="41.96000289916992" y2="138.87999877929687" style="visibility: inherit;" fill="rgb(0, 0, 0)" stroke="rgb(204, 204, 204)" stroke-width="1px"></line><line x1="46.96000289916992" y1="127.30666554768881" x2="41.96000289916992" y2="127.30666554768881" style="visibility: inherit;" fill="rgb(0, 0, 0)" stroke="rgb(204, 204, 204)" stroke-width="1px"></line><line x1="46.96000289916992" y1="115.73333231608075" x2="41.96000289916992" y2="115.73333231608075" style="visibility: inherit;" fill="rgb(0, 0, 0)" stroke="rgb(204, 204, 204)" stroke-width="1px"></line><line x1="46.96000289916992" y1="104.15999908447263" x2="41.96000289916992" y2="104.15999908447263" style="visibility: inherit;" fill="rgb(0, 0, 0)" stroke="rgb(204, 204, 204)" stroke-width="1px"></line><line x1="46.96000289916992" y1="92.5866658528646" x2="41.96000289916992" y2="92.5866658528646" style="visibility: inherit;" fill="rgb(0, 0, 0)" stroke="rgb(204, 204, 204)" stroke-width="1px"></line><line x1="46.96000289916992" y1="81.01333262125651" x2="41.96000289916992" y2="81.01333262125651" style="visibility: inherit;" fill="rgb(0, 0, 0)" stroke="rgb(204, 204, 204)" stroke-width="1px"></line><line x1="46.96000289916992" y1="69.43999938964842" x2="41.96000289916992" y2="69.43999938964842" style="visibility: inherit;" fill="rgb(0, 0, 0)" stroke="rgb(204, 204, 204)" stroke-width="1px"></line><line x1="46.96000289916992" y1="57.866666158040374" x2="41.96000289916992" y2="57.866666158040374" style="visibility: inherit;" fill="rgb(0, 0, 0)" stroke="rgb(204, 204, 204)" stroke-width="1px"></line><line x1="46.96000289916992" y1="46.29333292643228" x2="41.96000289916992" y2="46.29333292643228" style="visibility: inherit;" fill="rgb(0, 0, 0)" stroke="rgb(204, 204, 204)" stroke-width="1px"></line><line x1="46.96000289916992" y1="34.71999969482419" x2="41.96000289916992" y2="34.71999969482419" style="visibility: inherit;" fill="rgb(0, 0, 0)" stroke="rgb(204, 204, 204)" stroke-width="1px"></line><line x1="46.96000289916992" y1="23.146666463216103" x2="41.96000289916992" y2="23.146666463216103" style="visibility: inherit;" fill="rgb(0, 0, 0)" stroke="rgb(204, 204, 204)" stroke-width="1px"></line><line x1="46.96000289916992" y1="11.573333231608013" x2="41.96000289916992" y2="11.573333231608013" style="visibility: inherit;" fill="rgb(0, 0, 0)" stroke="rgb(204, 204, 204)" stroke-width="1px"></line></g><g transform="translate(36.96000289916992, 0)"><text style="text-anchor: end; visibility: inherit; font-family: Roboto, sans-serif; font-size: 12px; font-weight: 200;" x="0" y="162.02666524251305" dx="0em" dy="0.3em" fill="rgb(33, 33, 33)" stroke="none" stroke-width="1px">0.3</text><text style="text-anchor: end; visibility: hidden; font-family: Roboto, sans-serif; font-size: 12px; font-weight: 200;" x="0" y="150.45333201090494" dx="0em" dy="0.3em" fill="rgb(33, 33, 33)" stroke="none" stroke-width="1px">0.32</text><text style="text-anchor: end; visibility: hidden; font-family: Roboto, sans-serif; font-size: 12px; font-weight: 200;" x="0" y="138.87999877929687" dx="0em" dy="0.3em" fill="rgb(33, 33, 33)" stroke="none" stroke-width="1px">0.34</text><text style="text-anchor: end; visibility: inherit; font-family: Roboto, sans-serif; font-size: 12px; font-weight: 200;" x="0" y="127.30666554768881" dx="0em" dy="0.3em" fill="rgb(33, 33, 33)" stroke="none" stroke-width="1px">0.36</text><text style="text-anchor: end; visibility: hidden; font-family: Roboto, sans-serif; font-size: 12px; font-weight: 200;" x="0" y="115.73333231608075" dx="0em" dy="0.3em" fill="rgb(33, 33, 33)" stroke="none" stroke-width="1px">0.38</text><text style="text-anchor: end; visibility: hidden; font-family: Roboto, sans-serif; font-size: 12px; font-weight: 200;" x="0" y="104.15999908447263" dx="0em" dy="0.3em" fill="rgb(33, 33, 33)" stroke="none" stroke-width="1px">0.4</text><text style="text-anchor: end; visibility: inherit; font-family: Roboto, sans-serif; font-size: 12px; font-weight: 200;" x="0" y="92.5866658528646" dx="0em" dy="0.3em" fill="rgb(33, 33, 33)" stroke="none" stroke-width="1px">0.42</text><text style="text-anchor: end; visibility: hidden; font-family: Roboto, sans-serif; font-size: 12px; font-weight: 200;" x="0" y="81.01333262125651" dx="0em" dy="0.3em" fill="rgb(33, 33, 33)" stroke="none" stroke-width="1px">0.44</text><text style="text-anchor: end; visibility: hidden; font-family: Roboto, sans-serif; font-size: 12px; font-weight: 200;" x="0" y="69.43999938964842" dx="0em" dy="0.3em" fill="rgb(33, 33, 33)" stroke="none" stroke-width="1px">0.46</text><text style="text-anchor: end; visibility: inherit; font-family: Roboto, sans-serif; font-size: 12px; font-weight: 200;" x="0" y="57.866666158040374" dx="0em" dy="0.3em" fill="rgb(33, 33, 33)" stroke="none" stroke-width="1px">0.48</text><text style="text-anchor: end; visibility: hidden; font-family: Roboto, sans-serif; font-size: 12px; font-weight: 200;" x="0" y="46.29333292643228" dx="0em" dy="0.3em" fill="rgb(33, 33, 33)" stroke="none" stroke-width="1px">0.5</text><text style="text-anchor: end; visibility: hidden; font-family: Roboto, sans-serif; font-size: 12px; font-weight: 200;" x="0" y="34.71999969482419" dx="0em" dy="0.3em" fill="rgb(33, 33, 33)" stroke="none" stroke-width="1px">0.52</text><text style="text-anchor: end; visibility: inherit; font-family: Roboto, sans-serif; font-size: 12px; font-weight: 200;" x="0" y="23.146666463216103" dx="0em" dy="0.3em" fill="rgb(33, 33, 33)" stroke="none" stroke-width="1px">0.54</text><text style="text-anchor: end; visibility: hidden; font-family: Roboto, sans-serif; font-size: 12px; font-weight: 200;" x="0" y="11.573333231608013" dx="0em" dy="0.3em" fill="rgb(33, 33, 33)" stroke="none" stroke-width="1px">0.56</text></g><line x1="46.96000289916992" y1="0" x2="46.96000289916992" y2="173.5999984741211" fill="rgb(0, 0, 0)" stroke="rgb(204, 204, 204)" stroke-width="1px"></line></g></g><g transform="translate(46, 0)" clip-path="url(#clip_0)"><clipPath id="clip_0"><rect width="283" height="173"></rect></clipPath><g><g><g><line x1="0" y1="0" x2="0" y2="173.5999984741211" fill="rgb(0, 0, 0)" stroke="rgb(66, 66, 66)" stroke-width="1px" opacity="0.25"></line><line x1="23.586666425069172" y1="0" x2="23.586666425069172" y2="173.5999984741211" fill="rgb(0, 0, 0)" stroke="rgb(66, 66, 66)" stroke-width="1px" opacity="0.25"></line><line x1="47.173332850138344" y1="0" x2="47.173332850138344" y2="173.5999984741211" fill="rgb(0, 0, 0)" stroke="rgb(66, 66, 66)" stroke-width="1px" opacity="0.25"></line><line x1="70.75999927520752" y1="0" x2="70.75999927520752" y2="173.5999984741211" fill="rgb(0, 0, 0)" stroke="rgb(66, 66, 66)" stroke-width="1px" opacity="0.25"></line><line x1="94.34666570027669" y1="0" x2="94.34666570027669" y2="173.5999984741211" fill="rgb(0, 0, 0)" stroke="rgb(66, 66, 66)" stroke-width="1px" opacity="0.25"></line><line x1="117.93333212534587" y1="0" x2="117.93333212534587" y2="173.5999984741211" fill="rgb(0, 0, 0)" stroke="rgb(66, 66, 66)" stroke-width="1px" opacity="0.25"></line><line x1="141.51999855041504" y1="0" x2="141.51999855041504" y2="173.5999984741211" fill="rgb(0, 0, 0)" stroke="rgb(66, 66, 66)" stroke-width="1px" opacity="0.25"></line><line x1="165.10666497548422" y1="0" x2="165.10666497548422" y2="173.5999984741211" fill="rgb(0, 0, 0)" stroke="rgb(66, 66, 66)" stroke-width="1px" opacity="0.25"></line><line x1="188.69333140055338" y1="0" x2="188.69333140055338" y2="173.5999984741211" fill="rgb(0, 0, 0)" stroke="rgb(66, 66, 66)" stroke-width="1px" opacity="0.25"></line><line x1="212.27999782562256" y1="0" x2="212.27999782562256" y2="173.5999984741211" fill="rgb(0, 0, 0)" stroke="rgb(66, 66, 66)" stroke-width="1px" opacity="0.25"></line><line x1="235.86666425069174" y1="0" x2="235.86666425069174" y2="173.5999984741211" fill="rgb(0, 0, 0)" stroke="rgb(66, 66, 66)" stroke-width="1px" opacity="0.25"></line><line x1="259.45333067576087" y1="0" x2="259.45333067576087" y2="173.5999984741211" fill="rgb(0, 0, 0)" stroke="rgb(66, 66, 66)" stroke-width="1px" opacity="0.25"></line><line x1="283.0399971008301" y1="0" x2="283.0399971008301" y2="173.5999984741211" fill="rgb(0, 0, 0)" stroke="rgb(66, 66, 66)" stroke-width="1px" opacity="0.25"></line></g><g><line x1="0" y1="162.02666524251305" x2="283.0399971008301" y2="162.02666524251305" fill="rgb(0, 0, 0)" stroke="rgb(66, 66, 66)" stroke-width="1px" opacity="0.25"></line><line x1="0" y1="150.45333201090494" x2="283.0399971008301" y2="150.45333201090494" fill="rgb(0, 0, 0)" stroke="rgb(66, 66, 66)" stroke-width="1px" opacity="0.25"></line><line x1="0" y1="138.87999877929687" x2="283.0399971008301" y2="138.87999877929687" fill="rgb(0, 0, 0)" stroke="rgb(66, 66, 66)" stroke-width="1px" opacity="0.25"></line><line x1="0" y1="127.30666554768881" x2="283.0399971008301" y2="127.30666554768881" fill="rgb(0, 0, 0)" stroke="rgb(66, 66, 66)" stroke-width="1px" opacity="0.25"></line><line x1="0" y1="115.73333231608075" x2="283.0399971008301" y2="115.73333231608075" fill="rgb(0, 0, 0)" stroke="rgb(66, 66, 66)" stroke-width="1px" opacity="0.25"></line><line x1="0" y1="104.15999908447263" x2="283.0399971008301" y2="104.15999908447263" fill="rgb(0, 0, 0)" stroke="rgb(66, 66, 66)" stroke-width="1px" opacity="0.25"></line><line x1="0" y1="92.5866658528646" x2="283.0399971008301" y2="92.5866658528646" fill="rgb(0, 0, 0)" stroke="rgb(66, 66, 66)" stroke-width="1px" opacity="0.25"></line><line x1="0" y1="81.01333262125651" x2="283.0399971008301" y2="81.01333262125651" fill="rgb(0, 0, 0)" stroke="rgb(66, 66, 66)" stroke-width="1px" opacity="0.25"></line><line x1="0" y1="69.43999938964842" x2="283.0399971008301" y2="69.43999938964842" fill="rgb(0, 0, 0)" stroke="rgb(66, 66, 66)" stroke-width="1px" opacity="0.25"></line><line x1="0" y1="57.866666158040374" x2="283.0399971008301" y2="57.866666158040374" fill="rgb(0, 0, 0)" stroke="rgb(66, 66, 66)" stroke-width="1px" opacity="0.25"></line><line x1="0" y1="46.29333292643228" x2="283.0399971008301" y2="46.29333292643228" fill="rgb(0, 0, 0)" stroke="rgb(66, 66, 66)" stroke-width="1px" opacity="0.25"></line><line x1="0" y1="34.71999969482419" x2="283.0399971008301" y2="34.71999969482419" fill="rgb(0, 0, 0)" stroke="rgb(66, 66, 66)" stroke-width="1px" opacity="0.25"></line><line x1="0" y1="23.146666463216103" x2="283.0399971008301" y2="23.146666463216103" fill="rgb(0, 0, 0)" stroke="rgb(66, 66, 66)" stroke-width="1px" opacity="0.25"></line><line x1="0" y1="11.573333231608013" x2="283.0399971008301" y2="11.573333231608013" fill="rgb(0, 0, 0)" stroke="rgb(66, 66, 66)" stroke-width="1px" opacity="0.25"></line></g></g></g><g><g><line x1="0" y1="335.62666371663414" x2="283.0399971008301" y2="335.62666371663414" fill="rgb(0, 0, 0)" stroke="rgb(153, 153, 153)" stroke-width="1.5px"></line></g></g><g><g><line x1="23.586666425069172" y1="0" x2="23.586666425069172" y2="173.5999984741211" fill="rgb(0, 0, 0)" stroke="rgb(153, 153, 153)" stroke-width="1.5px"></line></g></g><g><g><g><g><g><path style="fill: none;" stroke="rgb(238, 51, 119)" stroke-width="2px" d="M34.90826630910238,-3.7433784980848492L35.37999963760376,0.21175555206451827L35.851732966105146,4.556494299796028L36.323466294606526,8.806346031744775L36.79519962310791,14.722494847284592L37.26693295160929,10.295700570645037L37.73866628011068,11.302882867734969L38.210399608612065,15.685207058322016L38.682132937113444,18.359025995798813L39.15386626561483,21.035480526688065L39.62559959411622,14.683605706044043L40.097332922617596,14.38793700916487L40.56906625111898,10.586775035650517L41.040799579620355,16.180947528166328L41.51253290812174,19.784365781249228L41.98426623662313,18.323995654060255L42.45599956512451,23.56702392680693L42.927732893625894,20.20199833765613L43.39946622212727,21.844771111549754L43.87119955062866,25.796384343923357L44.342932879130046,29.882877568214003L44.814666207631426,34.72138193778524L45.28639953613281,40.048015291474286L45.75813286463419,41.88942745844493L46.22986619313558,39.053491714668134L46.701599521636965,43.123470503175525L47.173332850138344,47.09122488804605L47.64506617863973,47.47985376383489L48.11679950714112,50.59095296636695L48.588532835642496,48.465828588025474L49.06026616414388,46.093182981899545L49.53199949264526,47.25682161341421L50.00373282114665,47.30295406584432L50.475466149648035,43.89090475705034L50.947199478149415,47.05407016206001L51.4189328066508,49.660050655540374L51.89066613515218,49.49568745356907L52.36239946365357,52.40537643711422L52.83413279215495,57.078268534416885L53.305866120656326,51.63118369130845L53.77759944915771,51.88450891227151L54.2493327776591,55.729764819337795L54.72106610616048,57.77758571745657L55.192799434661865,58.20258642631155L55.664532763163244,59.76281304053966L56.13626609166463,52.80433829193984L56.60799942016602,49.55999832706224L57.079732748667396,53.41333530298461L57.55146607716878,57.65426879048837L58.02319940567016,54.888738035563804L58.49493273417155,53.75863240628757L58.966666062672935,58.340119743988296L59.438399391174315,61.48686968785444L59.9101327196757,59.4731530320832L60.38186604817709,60.56741081114162L60.85359937667847,64.94940391826073L61.325332705179854,64.7196535679295L61.79706603368123,65.68543352026016L62.26879936218262,67.7157382977343L62.740532690684006,67.8561167384595L63.212266019185385,61.6314170153699L63.68399934768677,59.756867089803315L64.15573267618815,62.749143251257465L64.62746600468954,63.46551554854376L65.09919933319092,65.75787937708854L65.5709326616923,66.67881821430613L66.04266599019368,69.12160042717097L66.51439931869507,66.08583452519242L66.98613264719646,65.872474832006L67.45786597569784,69.39925030582937L67.92959930419921,68.63897952764894L68.4013326327006,68.8828687880601L68.87306596120199,71.45332155961633L69.34479928970337,73.63682433705546L69.81653261820476,71.16334324764324L70.28826594670613,70.30533463365857L70.75999927520752,74.00289159098068L71.23173260370889,76.23435578025536L71.70346593221029,77.96765823728317L72.17519926071166,81.76333705574457L72.64693258921305,84.59138539058797L73.11866591771444,82.87426490766653L73.59039924621582,80.38713916919583L74.0621325747172,79.45943273016242L74.53386590321858,79.39192865393048L75.00559923171997,77.0605769836324L75.47733256022136,71.00545637549008L75.94906588872273,72.38856618628336L76.42079921722413,72.20041043431853L76.8925325457255,74.93388055312448L77.36426587422689,75.92828489357724L77.83599920272827,75.76427211949023L78.30773253122966,76.9186670291006L78.77946585973103,79.24583223661567L79.25119918823243,78.93461373406488L79.7229325167338,78.36183379278484L80.19466584523519,77.80102704703137L80.66639917373656,80.81067872235296L81.13813250223797,84.56593241572813L81.60986583073934,87.70689556507817L82.08159915924071,89.16075129282626L82.55333248774211,90.21303366531512L83.02506581624348,92.01020858095727L83.49679914474487,90.52126055416977L83.96853247324626,90.99272289466481L84.44026580174764,92.55422034721866L84.91199913024901,94.45825894304711L85.38373245875042,94.84886379537747L85.85546578725179,92.8962761918715L86.32719911575317,94.69822562610192L86.79893244425455,95.97414472551681L87.27066577275595,96.58630052044356L87.74239910125732,96.81093426391031L88.2141324297587,94.14342375765315L88.68586575826009,92.4810298027283L89.15759908676148,94.48095395365768L89.62933241526285,93.6480986753657L90.10106574376425,95.4451868998783L90.57279907226562,96.15041060898362L91.04453240076701,97.40825307975479L91.51626572926838,95.00840226740287L91.98799905776978,97.64183692977659L92.45973238627116,94.04511085395254L92.93146571477254,94.11081012323342L93.40319904327393,91.78868368756343L93.87493237177532,90.85625307319182L94.34666570027669,89.31438105822544L94.81839902877809,90.10887816404201L95.29013235727946,91.73894669206081L95.76186568578083,92.87421548762018L96.23359901428223,92.99196033448119L96.7053323427836,90.42928398139182L97.17706567128499,91.95641832102238L97.64879899978637,88.55937136413486L98.12053232828777,92.37272558161115L98.59226565678914,94.89501820308033L99.06399898529052,97.03504079701919L99.53573231379191,96.3003735309845L100.0074656422933,98.35425515798704L100.47919897079467,102.4365717242135L100.95093229929607,105.67707294718569L101.42266562779744,102.73918446759056L101.89439895629883,102.93845084540565L102.36613228480022,103.86685826989687L102.8378656133016,103.05388019890107L103.30959894180297,102.46001336390601L103.78133227030436,104.99749826202014L104.25306559880575,106.16444786086649L104.72479892730713,105.85741941578299L105.1965322558085,106.41607420267356L105.6682655843099,107.61910099774359L106.13999891281128,105.4242638445593L106.61173224131265,106.87699656548811L107.08346556981405,107.31097386501558L107.55519889831542,107.093462802559L108.02693222681681,102.2199660651022L108.4986655553182,100.27108124539512L108.97039888381958,101.24804502401041L109.44213221232096,102.44635511726322L109.91386554082234,102.4816400695075L110.38559886932373,98.65362111105689L110.85733219782512,100.5966829297104L111.32906552632649,100.01984370010992L111.80079885482789,96.19134809960764L112.27253218332926,99.34917034171814L112.74426551183065,100.96584220948309L113.21599884033203,104.69616975854798L113.68773216883342,108.21808442801543L114.15946549733479,109.42271076361567L114.6311988258362,109.14013866796806L115.10293215433757,108.34053420366968L115.57466548283895,108.92416014743446L116.04639881134032,109.92756208099033L116.51813213984173,111.3846752280071L116.9898654683431,111.98248306648192L117.46159879684447,113.21430041122379L117.93333212534587,114.58598543949601L118.40506545384724,114.3424785533539L118.87679878234863,115.46505362906845L119.34853211085002,115.06297450049144L119.8202654393514,115.08092002583219L120.29199876785277,115.72158857670713L120.76373209635418,115.7303421136419L121.23546542485555,116.0192366395202L121.70719875335693,116.79296980257902L122.1789320818583,116.58195882544439L122.65066541035971,116.49795891163224L123.12239873886108,116.59271825425736L123.59413206736247,115.66201292574048L124.06586539586385,114.39674551031017L124.53759872436524,114.95224832483724L125.00933205286661,114.42662711747624L125.48106538136801,113.81945055252471L125.95279870986938,112.04861129296145L126.42453203837077,112.92377164592665L126.89626536687214,109.7540270679394L127.36799869537354,110.6988442107304L127.83973202387492,113.84636392272748L128.3114653523763,115.36434177455752L128.7831986808777,116.88003272113467L129.25493200937908,114.51112508761125L129.72666533788043,113.82982829815812L130.19839866638185,115.16503380081075L130.6701319948832,113.63142170067968L131.1418653233846,114.27490277149309L131.61359865188598,114.76531405137769L132.08533198038737,116.70296277393243L132.55706530888875,115.45477471307265L133.02879863739014,112.9630159884148L133.50053196589153,113.80157798088858L133.9722652943929,114.75147129902729L134.44399862289427,116.62073529182004L134.91573195139568,117.60476496200098L135.38746527989704,117.15371739108728L135.85919860839843,118.80324020306068L136.33093193689982,119.82965158726383L136.8026652654012,119.75416486462771L137.2743985939026,118.63532562978898L137.74613192240398,118.18311421147955L138.21786525090536,117.51202857588042L138.68959857940675,117.96623527523302L139.1613319079081,118.62122565976291L139.63306523640952,119.84573740692602L140.10479856491088,119.75933776095631L140.57653189341227,118.83189161997824L141.04826522191365,121.51580053649202L141.51999855041504,122.18438643105887L141.99173187891643,123.84145243857756L142.46346520741778,124.70313055746131L142.9351985359192,125.24946710154467L143.40693186442059,124.48156897138036L143.87866519292194,125.04088195672226L144.35039852142333,124.12184265585952L144.82213184992474,124.77098270194581L145.2938651784261,125.35937618786188L145.7655985069275,127.04958164764437L146.23733183542888,127.18353669637274L146.70906516393026,127.8811665789076L147.18079849243165,129.2987282738705L147.652531820933,129.85900842102447L148.1242651494344,131.19140417408013L148.5959984779358,131.1007098002266L149.06773180643717,128.0032536871872L149.53946513493855,126.23371450367404L150.01119846343994,127.3390219210068L150.48293179194133,128.82151557305696L150.9546651204427,128.21406386301823L151.4263984489441,127.93341199670215L151.89813177744546,129.35980638635232L152.36986510594687,128.34363277714678L152.84159843444826,128.46949018531492L153.31333176294962,128.49682460533444L153.785065091451,128.8553532594194L154.25679841995242,128.8679733668731L154.72853174845378,128.56313722865033L155.20026507695516,128.15085720448457L155.67199840545655,123.84759867932561L156.1437317339579,123.28950128244506L156.61546506245932,124.71266609679579L157.0871983909607,125.1633874055574L157.55893171946207,126.37902811552553L158.03066504796345,125.80223047477043L158.50239837646487,128.72944968685542L158.97413170496623,130.25885077303283L159.4458650334676,132.079687861751L159.91759836196897,129.93747772139602L160.38933169047039,129.3386053425331L160.86106501897177,129.3322915721208L161.33279834747313,131.12887445664535L161.80453167597452,131.24540742606732L162.27626500447593,130.45184034671908L162.7479983329773,130.1249585600837L163.21973166147868,130.26760944647677L163.69146498998006,130.07804066052864L164.16319831848142,131.33863853921486L164.63493164698284,132.342137124013L165.10666497548422,133.08392158434663L165.57839830398558,133.35054263704296L166.05013163248697,132.64854636488167L166.52186496098838,133.26496494016115L166.99359828948974,134.25432549685118L167.46533161799113,134.66396532166334L167.9370649464925,135.67166303379608L168.4087982749939,134.9331509416607L168.88053160349529,135.31265072328657L169.35226493199667,135.99592527271798L169.82399826049803,136.37763423228017L170.29573158899944,135.44807041607837L170.76746491750083,136.56572429200216L171.2391982460022,136.60412431825762L171.71093157450358,135.94476718926384L172.18266490300496,136.64047450878263L172.65439823150635,136.57098771908804L173.12613156000774,136.2116485511217L173.5978648885091,136.0170394737008L174.0695982170105,135.21647240027673L174.5413315455119,136.43606845491607L175.01306487401325,136.24696824622018L175.48479820251464,136.08518410301394L175.95653153101605,135.79417078870944L176.4282648595174,138.9488627481452L176.8999981880188,139.04370626656026L177.37173151652019,138.22526199267267L177.84346484502154,137.26643464125638L178.31519817352296,135.95128289515594L178.78693150202434,137.0336536252381L179.2586648305257,136.08530583142166L179.7303981590271,138.16496396966954L180.2021314875285,138.3583155794132L180.67386481602986,138.74394643759095L181.14559814453125,139.94462495531087L181.61733147303264,140.0264211574139L182.08906480153402,139.51551789743033L182.5607981300354,140.18121866615607L183.03253145853677,138.5771080369286L183.50426478703815,138.88760991530276L183.97599811553957,138.92425353281703L184.44773144404093,140.09793969083452L184.9194647725423,140.90098962861185L185.3911981010437,141.22130072250073L185.86293142954509,139.94550076506394L186.33466475804647,141.40635195540932L186.80639808654786,141.69743640765174L187.27813141504922,141.80920659798312L187.74986474355063,142.38903438137788L188.22159807205202,142.2051305067829L188.69333140055338,142.54000833512183L189.16506472905476,141.6399177260718L189.63679805755618,141.21339564519852L190.10853138605754,141.32488819651763L190.58026471455892,141.28164784082736L191.0519980430603,141.95869317829903L191.52373137156167,140.81671624519507L191.99546470006308,140.94492217849864L192.46719802856447,141.7184000655623L192.93893135706583,141.87663787486377L193.4106646855672,142.05000677278335L193.88239801406863,141.65312497640883L194.35413134256999,144.36928343306178L194.82586467107137,145.12018910889992L195.29759799957273,145.7463816555746L195.76933132807414,145.39015640159136L196.24106465657553,145.64031090579132L196.7127979850769,145.58817303991037L197.18453131357828,145.22650999704746L197.6562646420797,145.61590215062887L198.12799797058105,145.07588466820147L198.59973129908244,145.0162320287673L199.07146462758382,145.0590185347873L199.54319795608518,144.13219812884986L200.0149312845866,146.18461184265183L200.48666461308798,144.45223361427708L200.95839794158934,144.92079122752872L201.43013127009073,144.23090360201428L201.90186459859214,143.55986859759528L202.3735979270935,143.27147991732213L202.84533125559489,143.18994530642334L203.31706458409627,142.2229109858072L203.78879791259766,142.49755199114514L204.26053124109905,143.20191861615533L204.73226456960043,142.22090602130862L205.2039978981018,141.70211714225834L205.6757312266032,140.87123181047366L206.1474645551046,142.26150800301727L206.61919788360595,144.40463219468344L207.09093121210734,143.99962509970035L207.56266454060872,143.96028966465866L208.0343978691101,144.66018228066454L208.5061311976115,144.62605937399135L208.97786452611285,146.60005207387277L209.44959785461427,147.2431717925371L209.92133118311565,146.9893510765232L210.393064511617,146.4842636829932L210.8647978401184,147.019996292001L211.3365311686198,146.17630886600097L211.80826449712117,145.48823021290187L212.27999782562256,145.71677375857536L212.75173115412395,145.86542188196267L213.2234644826253,145.8380904022293L213.69519781112672,145.4995640836617L214.1669311396281,145.95595291995335L214.63866446812946,147.6530769877805L215.11039779663085,149.36392928567662L215.58213112513226,148.8050574581768L216.05386445363362,148.3257910012184L216.525597782135,148.52042278436676L216.9973311106364,147.97003516058413L217.46906443913778,149.0247762948601L217.94079776763917,149.53452978936414L218.41253109614053,148.6222810584925L218.8842644246419,149.02344990121253L219.35599775314333,148.9940458529559L219.82773108164469,149.18581411696636L220.29946441014607,149.25782350754739L220.77119773864746,149.0409564643617L221.24293106714885,149.69062462721047L221.71466439565023,149.1715855295039L222.18639772415162,151.16533557287292L222.65813105265298,151.58122010275744L223.1298643811544,152.45503982971667L223.60159770965578,151.5895484991754L224.07333103815714,151.3503743752319L224.54506436665852,150.87042326558537L225.01679769515994,151.52478145510406L225.4885310236613,151.73440214069296L225.96026435216268,152.62754847400024L226.43199768066407,152.32000789311584L226.90373100916543,153.4547500987466L227.37546433766684,153.43036821921743L227.84719766616823,153.55966244925798L228.31893099466959,153.68190727328152L228.79066432317097,154.75116505970377L229.2623976516724,153.14761988359143L229.73413098017375,154.29013183965495L230.20586430867513,154.45380533752274L230.6775976371765,152.93510787567695L231.1493309656779,151.48741035878328L231.6210642941793,151.30060075829917L232.09279762268065,150.20046697558143L232.56453095118204,150.19356472357083L233.03626427968345,151.1730771788868L233.5079976081848,151.1771979763838L233.9797309366862,151.1857390155082L234.45146426518758,150.57201360960428L234.92319759368894,150.09358641906067L235.39493092219035,151.35455688512255L235.86666425069174,152.5498522076104L236.3383975791931,152.6173924837807L236.8101309076945,152.50025132483987L237.2818642361959,152.701189765496L237.75359756469726,152.56096679385325L238.22533089319865,152.807358486473L238.69706422170003,153.18024857848903L239.16879755020142,154.89399268246797L239.6405308787028,155.42200856125606L240.1122642072042,154.6014653581942L240.58399753570555,154.75410240685775L241.05573086420696,154.58843703175364L241.52746419270835,154.47080214366292L241.9991975212097,152.70285281088823L242.4709308497111,152.462163891706L242.94266417821248,152.92457006911462L243.41439750671387,152.06876489746347L243.88613083521525,152.43384382720174L244.3578641637166,152.23886720246423L244.82959749221803,153.3764151127559L245.30133082071941,151.5657919345509L245.77306414922077,152.05046302918677L246.24479747772216,150.86072023778127L246.71653080622357,150.3527631737852L247.18826413472493,150.7058802130502L247.65999746322632,150.08788770683432L248.1317307917277,151.28160700593125L248.60346412022906,152.459168142227L249.07519744873048,149.8760242471844L249.54693077723186,150.36686929845885L250.01866410573322,150.60806201434644L250.4903974342346,149.14372705451578L250.96213076273602,150.4255266110582L251.43386409123738,150.8880527612685L251.90559741973877,151.90122320327947L252.37733074824015,151.81127359734566L252.84906407674154,151.0767892507113L253.32079740524293,150.5903056707632L253.7925307337443,151.53472052706877L254.26426406224567,150.76864185723872L254.7359973907471,151.01064149742814L255.20773071924845,152.48984307019023L255.67946404774983,151.06220554280532L256.1511973762512,151.00091922471148L256.6229307047526,152.22457136057096L257.094664033254,152.91857131559593L257.5663973617554,151.91196067187622L258.03813069025676,152.95931523461982L258.50986401875815,151.39443392042858L258.98159734725954,152.06766325577738L259.45333067576087,151.58676526946425" fill="none"></path></g><g><path style="fill: none;" stroke="rgb(51, 187, 238)" stroke-width="2px" d="M33.02133299509684,-1.2632439765404484L33.49306632359823,1.8721265457433693L33.96479965209961,4.517316789492792L34.436532980600994,9.635403127639682L34.90826630910238,17.995930084244552L35.37999963760376,17.355964016649253L35.851732966105146,16.622182226742115L36.323466294606526,20.94279434462222L36.79519962310791,20.407527954020384L37.26693295160929,21.779967625476637L37.73866628011068,20.94691299639611L38.210399608612065,23.42625656839518L38.682132937113444,17.432156739066375L39.15386626561483,21.086637583528475L39.62559959411622,25.4131846308599L40.097332922617596,28.20452733802186L40.56906625111898,31.398609288404398L41.040799579620355,31.672334496909947L41.51253290812174,29.920826175916087L41.98426623662313,33.81434708830002L42.45599956512451,37.07875599330251L42.927732893625894,39.44346611661091L43.39946622212727,42.71881046969462L43.87119955062866,45.14833081536189L44.342932879130046,44.905456714998934L44.814666207631426,45.63335019051869L45.28639953613281,45.59734671728417L45.75813286463419,41.38500732573266L46.22986619313558,36.57609689489345L46.701599521636965,41.023707555952114L47.173332850138344,44.66952133564691L47.64506617863973,44.67194596868003L48.11679950714112,42.3314851060707L48.588532835642496,43.2001811956817L49.06026616414388,40.743916182710926L49.53199949264526,39.807262559829105L50.00373282114665,43.23344434533952L50.475466149648035,43.00633240508089L50.947199478149415,40.796974317054676L51.4189328066508,38.52451382253305L51.89066613515218,45.664509988213865L52.36239946365357,46.954864041955226L52.83413279215495,47.95501537271817L53.305866120656326,49.13905602644077L53.77759944915771,51.277659775156074L54.2493327776591,56.89470633491718L54.72106610616048,56.11008982957457L55.192799434661865,55.460386023185784L55.664532763163244,55.12489205311129L56.13626609166463,57.16638146206926L56.60799942016602,59.78132877981232L57.079732748667396,65.07319737056575L57.55146607716878,66.39840218986268L58.02319940567016,61.040319187877984L58.49493273417155,60.23960409773431L58.966666062672935,62.677822923663115L59.438399391174315,63.56755283868273L59.9101327196757,65.32124397174307L60.38186604817709,68.5914111529362L60.85359937667847,68.69068682416977L61.325332705179854,70.90698064095685L61.79706603368123,70.81765675639792L62.26879936218262,73.03725125434684L62.740532690684006,75.22253858193865L63.212266019185385,73.20511860288057L63.68399934768677,74.03214973066476L64.15573267618815,70.91565493227753L64.62746600468954,69.70760856490728L65.09919933319092,72.61555374090858L65.5709326616923,69.84626646841825L66.04266599019368,69.82774895636796L66.51439931869507,71.18085825853721L66.98613264719646,74.12989388581023L67.45786597569784,74.34875131307912L67.92959930419921,77.70072662858402L68.4013326327006,76.15128473198455L68.87306596120199,77.16721300724821L69.34479928970337,76.41047620341516L69.81653261820476,77.8044749837894L70.28826594670613,79.90166001021983L70.75999927520752,80.04727455381611L71.23173260370889,82.360916302588L71.70346593221029,84.9013347930236L72.17519926071166,84.96911626275421L72.64693258921305,85.60834785301296L73.11866591771444,86.29511009633627L73.59039924621582,86.62817724953443L74.0621325747172,89.39921307873051L74.53386590321858,92.69290319798215L75.00559923171997,91.83475021241584L75.47733256022136,91.77652346921145L75.94906588872273,92.14353802396501L76.42079921722413,89.91276836392377L76.8925325457255,91.7100156422061L77.36426587422689,89.4745892274959L77.83599920272827,88.91764538410756L78.30773253122966,90.53561059335853L78.77946585973103,93.911026105413L79.25119918823243,93.5386839263538L79.7229325167338,93.29809671648162L80.19466584523519,93.17907423562497L80.66639917373656,91.84610575190864L81.13813250223797,93.99016294516794L81.60986583073934,95.7967009078976L82.08159915924071,95.45112737967457L82.55333248774211,95.92051283760216L83.02506581624348,92.93428745306818L83.49679914474487,89.55984355757046L83.96853247324626,90.29730467385069L84.44026580174764,89.83517872735898L84.91199913024901,83.8033044676198L85.38373245875042,82.76863686079021L85.85546578725179,84.72922611379441L86.32719911575317,88.35361173489414L86.79893244425455,91.947930605234L87.27066577275595,93.78756493266329L87.74239910125732,95.50960757026247L88.2141324297587,95.7541868168386L88.68586575826009,94.8235663882863L89.15759908676148,96.45386649080378L89.62933241526285,94.80081742515985L90.10106574376425,97.77269302252849L90.57279907226562,98.17687616861343L91.04453240076701,98.98031065534126L91.51626572926838,100.10129574864719L91.98799905776978,100.14466190378215L92.45973238627116,101.67347164268236L92.93146571477254,102.54867239295083L93.40319904327393,104.29162847260518L93.87493237177532,103.75787902649871L94.34666570027669,104.00282924706424L94.81839902877809,104.1168464625852L95.29013235727946,105.34851675854134L95.76186568578083,105.17103727735214L96.23359901428223,103.71257436877961L96.7053323427836,104.12774142728748L97.17706567128499,105.69126688289204L97.64879899978637,104.18423131443795L98.12053232828777,108.14379779356595L98.59226565678914,107.38816189529362L99.06399898529052,108.5891594321299L99.53573231379191,110.44273377307493L100.0074656422933,111.021994663128L100.47919897079467,113.19884784518497L100.95093229929607,114.45222593448042L101.42266562779744,114.78247225849924L101.89439895629883,112.698648544614L102.36613228480022,113.56655038487017L102.8378656133016,113.24995074603157L103.30959894180297,112.81854976307439L103.78133227030436,113.12569033090736L104.25306559880575,115.454346516773L104.72479892730713,116.26095151107133L105.1965322558085,114.16909255170413L105.6682655843099,112.64680349049979L106.13999891281128,113.6082691121579L106.61173224131265,115.07824451975455L107.08346556981405,113.76932317586467L107.55519889831542,114.43794944617409L108.02693222681681,114.79765349695164L108.4986655553182,115.50325626245173L108.97039888381958,117.0933142638058L109.44213221232096,114.32101077635987L109.91386554082234,113.74539368893396L110.38559886932373,110.74221281554526L110.85733219782512,112.19730301564108L111.32906552632649,113.76779395109119L111.80079885482789,114.84349611452754L112.27253218332926,112.06055633141723L112.74426551183065,111.80425416099548L113.21599884033203,114.57736287209275L113.68773216883342,115.02299301966266L114.15946549733479,115.67153532849662L114.6311988258362,116.26740803955278L115.10293215433757,115.41298551646095L115.57466548283895,115.16054773018914L116.04639881134032,115.80472031948202L116.51813213984173,115.68412874810281L116.9898654683431,116.10339841340219L117.46159879684447,116.55827279081578L117.93333212534587,117.53280193877659L118.40506545384724,117.07102022827492L118.87679878234863,118.73025419882597L119.34853211085002,120.04939685163774L119.8202654393514,120.71947575331262L120.29199876785277,120.2122096780001L120.76373209635418,119.82343731637349L121.23546542485555,119.81339766858102L121.70719875335693,120.9566644467934L122.1789320818583,119.51268384780278L122.65066541035971,117.52714636262141L123.12239873886108,117.69082593360238L123.59413206736247,116.69580096639815L124.06586539586385,117.17153970801644L124.53759872436524,119.5625491163614L125.00933205286661,118.35121814948262L125.48106538136801,119.29221611871581L125.95279870986938,120.42899264517372L126.42453203837077,120.22741722915798L126.89626536687214,122.04488268826279L127.36799869537354,118.49013270808804L127.83973202387492,110.8030716388109L128.3114653523763,112.28882652507633L128.7831986808777,113.87500212512289L129.25493200937908,114.30137333403584L129.72666533788043,115.94233914677918L130.19839866638185,118.08889100256148L130.6701319948832,119.26522843562275L131.1418653233846,121.61557740857876L131.61359865188598,122.93731363283474L132.08533198038737,124.04341427389119L132.55706530888875,125.8725990262883L133.02879863739014,124.19675378390134L133.50053196589153,124.69360712913793L133.9722652943929,125.05195422126508L134.44399862289427,126.00863301370602L134.91573195139568,125.44160470544534L135.38746527989704,123.87790158916728L135.85919860839843,125.59124106116629L136.33093193689982,127.62105825266515L136.8026652654012,127.51393562152614L137.2743985939026,126.43970148094701L137.74613192240398,126.847078725344L138.21786525090536,125.3719198526165L138.68959857940675,124.28396164667849L139.1613319079081,125.42840442832942L139.63306523640952,127.29449907428064L140.10479856491088,128.8749688387655L140.57653189341227,129.8277273293473L141.04826522191365,130.89937668462062L141.51999855041504,131.13681713300704L141.99173187891643,130.0489399219758L142.46346520741778,129.98667353112694L142.9351985359192,128.01249575971244L143.40693186442059,128.67006632497177L143.87866519292194,127.51913898072831L144.35039852142333,128.6321062927615L144.82213184992474,129.753663912332L145.2938651784261,129.45799967934104L145.7655985069275,128.7185935320114L146.23733183542888,130.01212325625292L146.70906516393026,127.90098671720693L147.18079849243165,128.99627448650853L147.652531820933,129.54014665541172L148.1242651494344,130.51526108702654L148.5959984779358,131.18638065182714L149.06773180643717,131.99901978311755L149.53946513493855,131.72413057922452L150.01119846343994,131.2330763272444L150.48293179194133,132.56290529344167L150.9546651204427,132.09056964072232L151.4263984489441,133.4205204064025L151.89813177744546,134.84807245988512L152.36986510594687,135.57806525643844L152.84159843444826,136.15617820689002L153.31333176294962,135.62211831940735L153.785065091451,132.3197078575186L154.25679841995242,132.37921966177277L154.72853174845378,133.00983506900897L155.20026507695516,130.7322248028116L155.67199840545655,131.41208008643395L156.1437317339579,132.1361124120709L156.61546506245932,132.6095275345565L157.0871983909607,131.2883093346205L157.55893171946207,131.7883605350909L158.03066504796345,133.37945885470447L158.50239837646487,132.7545763144242L158.97413170496623,135.413643354764L159.4458650334676,135.4720651943073L159.91759836196897,136.62770432257253L160.38933169047039,136.52601209873896L160.86106501897177,137.35603257000596L161.33279834747313,137.93329990134816L161.80453167597452,136.22001138813496L162.27626500447593,137.14962235381353L162.7479983329773,135.45354350117304L163.21973166147868,134.79366218777952L163.69146498998006,134.79483923893966L164.16319831848142,135.1511046519576L164.63493164698284,136.8124732901693L165.10666497548422,137.94143408604725L165.57839830398558,138.7205430646961L166.05013163248697,139.63624185238007L166.52186496098838,137.8124710317124L166.99359828948974,139.94222344759015L167.46533161799113,140.2903357483584L167.9370649464925,139.9566761015028L168.4087982749939,139.8285684201399L168.88053160349529,141.30916869199623L169.35226493199667,139.9249368559027L169.82399826049803,141.31152106767718L170.29573158899944,141.55915738637765L170.76746491750083,141.14335678741784L171.2391982460022,140.95797827475775L171.71093157450358,140.65184508320638L172.18266490300496,139.5392801457084L172.65439823150635,140.32902273045235L173.12613156000774,141.02446768405514L173.5978648885091,140.6529051210492L174.0695982170105,140.07218926777068L174.5413315455119,142.15600490702693L175.01306487401325,141.08951967768132L175.48479820251464,141.12789942138915L175.95653153101605,141.69929249930436L176.4282648595174,139.84637978735182L176.8999981880188,140.67035654356692L177.37173151652019,140.44866397168406L177.84346484502154,141.28954113756612L178.31519817352296,141.7825972378613L178.78693150202434,142.6627806041684L179.2586648305257,141.61457952352177L179.7303981590271,141.70827484000776L180.2021314875285,140.91051145792989L180.67386481602986,141.31374450433808L181.14559814453125,142.61768519706314L181.61733147303264,144.2238600251981L182.08906480153402,143.4632243195349L182.5607981300354,143.27557633397106L183.03253145853677,144.16366801265806L183.50426478703815,143.84065151448974L183.97599811553957,144.31415751889276L184.44773144404093,145.56655378778905L184.9194647725423,146.2617368618742L185.3911981010437,146.68079601311166L185.86293142954509,147.04920133397724L186.33466475804647,147.53038852639472L186.80639808654786,146.3256330545228L187.27813141504922,146.75763717190898L187.74986474355063,146.2525140972271L188.22159807205202,146.56925051160917L188.69333140055338,147.9788844462411L189.16506472905476,150.9445060040868L189.63679805755618,150.29027390596053L190.10853138605754,148.3544968455959L190.58026471455892,148.37117437740304L191.0519980430603,147.9833074784133L191.52373137156167,147.3528303391498L191.99546470006308,148.49525927766297L192.46719802856447,148.40205219595688L192.93893135706583,148.41037707765977L193.4106646855672,149.0117472849657L193.88239801406863,149.36618116437668L194.35413134256999,148.0096279004061L194.82586467107137,149.73313766598585L195.29759799957273,147.59163005279908L195.76933132807414,147.87081624469906L196.24106465657553,147.61078566442401L196.7127979850769,148.04273707755567L197.18453131357828,149.65029581193676L197.6562646420797,149.56425844048732L198.12799797058105,150.02317259890646L198.59973129908244,149.20941904431768L199.07146462758382,150.3966437957224L199.54319795608518,151.9166107587052L200.0149312845866,151.3941672655873L200.48666461308798,151.078007247554L200.95839794158934,151.87745728320778L201.43013127009073,152.11407205315209L201.90186459859214,152.7015920463504L202.3735979270935,152.88540559516616L202.84533125559489,153.00770834217963L203.31706458409627,152.56495499961815L203.78879791259766,152.96853648013436L204.26053124109905,152.75183883055814L204.73226456960043,152.4288892530602L205.2039978981018,153.62038567443525L205.6757312266032,153.89762127546697L206.1474645551046,153.39973154530588L206.61919788360595,153.81692988404885L207.09093121210734,152.5047362273783L207.56266454060872,154.1639752705751L208.0343978691101,153.52028654505065L208.5061311976115,153.58204025437706L208.97786452611285,152.8125605170627L209.44959785461427,153.00915542500638L209.92133118311565,153.13720839525072L210.393064511617,152.22005618124234L210.8647978401184,152.78536301073675L211.3365311686198,152.61655547472574L211.80826449712117,152.07740138162896L212.27999782562256,152.16550997902635L212.75173115412395,152.3943499692965L213.2234644826253,154.07991696842635L213.69519781112672,154.10817765726426L214.1669311396281,154.59289018003457L214.63866446812946,155.97048247805557L215.11039779663085,156.41497259497729L215.58213112513226,156.346414533834L216.05386445363362,155.31682986727162L216.525597782135,155.11126914867967L216.9973311106364,154.21492574096501L217.46906443913778,154.0431585913991L217.94079776763917,153.13734850072953L218.41253109614053,153.30546917866323L218.8842644246419,152.9973021817224L219.35599775314333,152.7242356983599L219.82773108164469,154.83379268641733L220.29946441014607,155.42410007739588L220.77119773864746,156.28659696223752L221.24293106714885,156.533002054937L221.71466439565023,157.8278133998052L222.18639772415162,158.2460747902311L222.65813105265298,157.56543294575638L223.1298643811544,157.9069665095901L223.60159770965578,158.06160195910758L224.07333103815714,157.22589646834598L224.54506436665852,155.7321956222674L225.01679769515994,156.82948163872723L225.4885310236613,157.14464384239866L225.96026435216268,158.02580514083996L226.43199768066407,159.08900665220412L226.90373100916543,159.14489835175715L227.37546433766684,158.57698823606083L227.84719766616823,159.4974213914619L228.31893099466959,158.9944882576252L228.79066432317097,159.67724491992183L229.2623976516724,160.51346772153866L229.73413098017375,161.71625738847186L230.20586430867513,160.6429595775424L230.6775976371765,161.3210774648528L231.1493309656779,160.81576144097866L231.6210642941793,159.7881196843995L232.09279762268065,160.4491050168895L232.56453095118204,159.05636925231462L233.03626427968345,157.79805103371226L233.5079976081848,157.2155842834561L233.9797309366862,159.16107509958073L234.45146426518758,160.299080455089L234.92319759368894,161.79155642681548L235.39493092219035,163.1803018432503L235.86666425069174,162.11089675188248L236.3383975791931,161.14928794089724L236.8101309076945,160.0577101252068L237.2818642361959,160.2037528920833L237.75359756469726,158.42496920898415L238.22533089319865,159.6031114126078L238.69706422170003,160.63989648634677L239.16879755020142,160.65751517178091L239.6405308787028,161.04470563000422L240.1122642072042,161.23772583919856L240.58399753570555,161.53721389313162L241.05573086420696,162.11113414081018L241.52746419270835,161.97484852171104L241.9991975212097,161.9299492033475L242.4709308497111,161.4793519144054L242.94266417821248,161.18375534624076L243.41439750671387,159.68369145414687L243.88613083521525,159.42867010468714L244.3578641637166,158.63379713432533L244.82959749221803,158.87458121931246L245.30133082071941,158.12712069342956L245.77306414922077,157.83607836927126L246.24479747772216,160.4739685786564L246.71653080622357,160.23890864363455L247.18826413472493,159.4680496480136L247.65999746322632,156.56404785781976L248.1317307917277,156.6739668530529L248.60346412022906,157.31740553094744L249.07519744873048,159.2418636364963L249.54693077723186,159.05138730148389L250.01866410573322,159.4218323356217L250.4903974342346,159.97467549815133L250.96213076273602,158.95107578159175L251.43386409123738,158.01182441282592L251.90559741973877,158.6539706709918L252.37733074824015,160.10355999393573" fill="none"></path></g></g></g></g><g opacity="0.2"><g><g><g><path style="fill: none;" stroke="rgb(238, 51, 119)" stroke-width="2px" d="M29.247466367085774,-5.219201874952438L29.719199695587157,10.748922692233622L30.190933024088544,-10.604419653190076L30.662666352589927,10.974771206076943L31.13439968109131,-5.187228513264477L32.077866338094076,-10.417649692520923L32.54959966659546,32.59210935555636L33.02133299509684,27.50827586472907L33.49306632359823,-26.269918249016722L33.96479965209961,-19.899665695755925L34.436532980600994,1.0587521714292187L34.90826630910238,10.123872788771692L35.37999963760376,18.796241874786443L35.851732966105146,25.008179724543748L36.323466294606526,28.840878671822953L36.79519962310791,42.646162255873165L37.26693295160929,-10.61931986057864L37.73866628011068,16.0653994674032L38.210399608612065,36.421428163196516L38.682132937113444,31.01810249403526L39.15386626561483,33.71293606689612L39.62559959411622,-15.414634289356531L40.097332922617596,12.986471659637132L40.56906625111898,-7.435400776676493L41.040799579620355,42.70993652314505L41.51253290812174,36.87574652366449L41.98426623662313,11.396288415557606L42.45599956512451,48.4419462809853L42.927732893625894,4.235428098961924L43.39946622212727,29.640143731580352L43.87119955062866,44.5490773990085L44.342932879130046,49.27675454378415L44.814666207631426,57.68526579062641L45.28639953613281,65.32957230366146L45.75813286463419,50.62951746943965L46.22986619313558,25.592633461115998L46.701599521636965,62.44217424503587L47.173332850138344,65.9250459852815L47.64506617863973,49.32459386704327L48.11679950714112,65.35887259573688L48.588532835642496,38.37808062834894L49.06026616414388,34.83038263859682L49.53199949264526,52.780579700669946L50.00373282114665,47.521944702793476L50.475466149648035,27.69383863266999L50.947199478149415,62.0697380427634L51.4189328066508,62.03078020886205L51.89066613515218,48.715444416373295L52.36239946365357,66.21789369554217L52.83413279215495,79.26088680853994L53.305866120656326,25.773367458143962L53.77759944915771,53.087068688759715L54.2493327776591,73.98359206020696L54.72106610616048,67.49881140825697L55.192799434661865,60.22011183577465L55.664532763163244,67.16938575833065L56.13626609166463,19.77165359920447L56.60799942016602,34.15873509582481L57.079732748667396,71.705584890797L57.55146607716878,77.78649059270904L58.02319940567016,41.76042770555297L58.49493273417155,48.39388276479094L58.966666062672935,80.08900377450227L59.438399391174315,76.42488066891659L59.9101327196757,49.91379014647647L60.38186604817709,65.76198873891708L60.85359937667847,85.75127228387103L61.325332705179854,63.62899990738956L61.79706603368123,70.27011201764664L62.26879936218262,77.35384996451818L62.740532690684006,68.52251084180462L63.212266019185385,32.081984199822884L63.68399934768677,50.85814252655793L64.15573267618815,76.95385527682102L64.62746600468954,66.86622517304873L65.09919933319092,76.64001965869939L65.5709326616923,71.05063109889552L66.04266599019368,80.71779597542175L66.51439931869507,51.674670442329166L66.98613264719646,64.85962942016796L67.45786597569784,86.14129900875501L67.92959930419921,65.02987808607064L68.4013326327006,70.0406419256186L68.87306596120199,83.65558570764615L69.34479928970337,84.00218798553429L69.81653261820476,59.42141588116057L70.28826594670613,66.23225928900821L70.75999927520752,91.55566186857446L71.23173260370889,86.8273983730451L71.70346593221029,86.19586412007148L72.17519926071166,99.78190425906287L72.64693258921305,98.01648836767409L73.11866591771444,74.72287688698121L73.59039924621582,68.58043884714972L74.0621325747172,75.05549297483218L74.53386590321858,79.07147826947906L75.00559923171997,65.99335584808951L75.47733256022136,42.26103328434375L75.94906588872273,78.95436332922937L76.42079921722413,71.30721129047775L76.8925325457255,87.91000881173086L77.36426587422689,80.64884802502884L77.83599920272827,74.9856827439191L78.30773253122966,82.39872562144413L78.77946585973103,90.29317971338092L79.25119918823243,77.45722015327634L79.7229325167338,75.6427749915106L80.19466584523519,75.13880651869115L80.66639917373656,95.0978757542183L81.13813250223797,102.3925964987654L81.60986583073934,102.61744476720533L82.08159915924071,96.06238825286137L82.55333248774211,95.20835113446267L83.02506581624348,100.54162513416519L83.49679914474487,83.45303601345786L83.96853247324626,93.2308142351117L84.44026580174764,99.96684618502925L84.91199913024901,103.49697089778029L85.38373245875042,96.70311441618001L85.85546578725179,83.62709595925968L86.32719911575317,103.25230742298682L86.79893244425455,102.03109401348868L87.27066577275595,99.49228147794766L87.74239910125732,97.87729904610799L88.2141324297587,81.48041411307186L88.68586575826009,84.58943551099192L89.15759908676148,103.97484676205934L89.62933241526285,89.69442936578422L90.10106574376425,103.97619191967081L90.57279907226562,99.49819672231602L91.04453240076701,103.37939032604969L91.51626572926838,83.61600703177028L91.98799905776978,110.14308423505437L92.45973238627116,76.97099741356202L92.93146571477254,94.42269286131359L93.40319904327393,80.765255895252L93.87493237177532,86.42988705324602L94.34666570027669,81.9949196538478L94.81839902877809,93.88045637900892L95.29013235727946,99.47708809518222L95.76186568578083,98.26347999987202L96.23359901428223,93.55091000980977L96.7053323427836,78.26393531672802L97.17706567128499,99.20591811719869L97.64879899978637,72.43315994810733L98.12053232828777,110.47520020020362L98.59226565678914,106.868660187755L99.06399898529052,107.1939986280157L99.53573231379191,92.81281513015334L100.0074656422933,108.1042909275504L100.47919897079467,121.81584461905797L100.95093229929607,121.06014197117962L101.42266562779744,88.79265639778883L101.89439895629883,103.88439353549334L102.36613228480022,108.27412569880337L102.8378656133016,99.19457050555323L103.30959894180297,99.6408524115732L103.78133227030436,117.04325990479177L104.25306559880575,111.70410515194168L104.72479892730713,104.3999165672831L105.1965322558085,109.06807911055651L105.6682655843099,113.33002130077713L106.13999891281128,95.00509437024785L106.61173224131265,113.77330247058691L107.08346556981405,109.37111897656561L107.55519889831542,106.0609102876791L108.02693222681681,79.08486086315212L108.4986655553182,91.0194785955214L108.97039888381958,105.88581560525309L109.44213221232096,108.13488464040607L109.91386554082234,102.64914219912683L110.38559886932373,80.48153111289476L110.85733219782512,109.82064305734141L111.32906552632649,97.28151494350068L111.80079885482789,78.0169954213613L112.27253218332926,114.33975178989797L112.74426551183065,108.64038797255145L113.21599884033203,122.40450628456867L113.68773216883342,124.93705866353324L114.15946549733479,115.14122428778703L114.6311988258362,107.79873320242241L115.10293215433757,104.5447107122303L115.57466548283895,111.69470629427181L116.04639881134032,114.69083792649101L116.51813213984173,118.30177556959254L116.9898654683431,114.8203524606208L117.46159879684447,119.06189309373414L117.93333212534587,121.09754770014466L118.40506545384724,113.18652057661016L118.87679878234863,120.79405944826509L119.34853211085002,113.15425403954535L119.8202654393514,115.16610970359918L120.29199876785277,118.76292319178025L120.76373209635418,115.77189626024048L121.23546542485555,117.39065548075847L121.70719875335693,120.46597895595025L122.1789320818583,115.58026303743756L122.65066541035971,116.09920070008717L123.12239873886108,117.04255283476525L123.59413206736247,111.24383705588454L124.06586539586385,108.39036111292249L124.53759872436524,117.58929042138519L125.00933205286661,111.9314367882797L125.48106538136801,110.9371066292491L125.95279870986938,103.64221342859797L126.42453203837077,117.07826849391073L126.89626536687214,94.70684878393091L127.36799869537354,115.18401064719794L127.83973202387492,128.7880379578401L128.3114653523763,122.57037456542886L128.7831986808777,124.0752092836218L129.25493200937908,103.26562103421826L129.72666533788043,110.5956262976508L130.19839866638185,121.5034231409894L130.6701319948832,106.35117115637925L131.1418653233846,117.32958877431994L131.61359865188598,117.09335840301375L132.08533198038737,125.90122624996823L132.55706530888875,109.52946817128989L133.02879863739014,101.13432227251029L133.50053196589153,117.78233778424121L133.9722652943929,119.26073498168567L134.44399862289427,125.4943678093305L134.91573195139568,122.2760782238943L135.38746527989704,115.01253754295661L135.85919860839843,126.63373355185396L136.33093193689982,124.70215620422812L136.8026652654012,119.39581984797574L137.2743985939026,113.32405431957753L137.74613192240398,116.03640943260828L138.21786525090536,114.3263002137833L138.68959857940675,120.12241190549308L139.1613319079081,121.73054783000258L139.63306523640952,125.6586494940336L140.10479856491088,119.34918771744489L140.57653189341227,114.42918752545016L141.04826522191365,134.25665550798874L141.51999855041504,125.35824820641622L141.99173187891643,131.7077542903617L142.46346520741778,128.7936255356108L142.9351985359192,127.8429957533425L143.40693186442059,120.8362594569223L143.87866519292194,127.69601141587407L144.35039852142333,119.75904689429282L144.82213184992474,127.8525325758956L145.2938651784261,128.15255446008408L145.7655985069275,135.07320066937038L146.23733183542888,127.81943824953143L146.70906516393026,131.19290383737768L147.18079849243165,136.02807287179792L147.652531820933,132.518729119583L148.1242651494344,137.51645527766598L148.5959984779358,130.6701721404393L149.06773180643717,113.29923788620701L149.53946513493855,117.83348826469776L150.01119846343994,132.58605598259803L150.48293179194133,135.8591003810651L150.9546651204427,125.33041379122508L151.4263984489441,126.60112210258106L151.89813177744546,136.1310809027376L152.36986510594687,123.5197281725273L152.84159843444826,129.06695121489477L153.31333176294962,128.6265845532432L153.785065091451,130.55733411156965L154.25679841995242,128.9278826126015L154.72853174845378,127.1160415380067L155.20026507695516,126.19371180241043L155.67199840545655,103.41948637023766L156.1437317339579,120.64014237541447L156.61546506245932,131.46860941089733L157.0871983909607,127.30301844600069L157.55893171946207,132.14982826744324L158.03066504796345,123.06409914566868L158.50239837646487,142.62532939479908L158.97413170496623,137.51911110166813L159.4458650334676,140.72343174267755L159.91759836196897,119.76813533097541L160.38933169047039,126.49568244057448L160.86106501897177,129.3023193056808L161.33279834747313,139.65748056364149L161.80453167597452,131.79860416596696L162.27626500447593,126.68467708498568L162.7479983329773,128.57320938904456L163.21973166147868,130.94479124050352L163.69146498998006,129.1781336651657L164.16319831848142,137.32285605527707L164.63493164698284,137.1058717851811L165.10666497548422,136.60526620639033L165.57839830398558,134.61622648490027L166.05013163248697,129.31608130278275L166.52186496098838,136.19118185499357L166.99359828948974,138.95094515102335L167.46533161799113,136.60857736358778L167.9370649464925,140.45533148334582L168.4087982749939,131.4273406652019L168.88053160349529,137.11418416939557L169.35226493199667,139.23951594990396L169.82399826049803,138.1896549253743L170.29573158899944,131.03531344951114L170.76746491750083,141.8713685535715L171.2391982460022,136.78641409806798L171.71093157450358,132.8147155309371L172.18266490300496,139.94308511753272L172.65439823150635,136.2411251427219L173.12613156000774,134.5058200870975L173.5978648885091,135.09320557743834L174.0695982170105,131.4160792816085L174.5413315455119,142.22564512808916L175.01306487401325,135.3492856463189L175.48479820251464,135.3171743197477L175.95653153101605,134.41269379091898L176.4282648595174,153.92458434868516L176.8999981880188,139.49394044018575L177.37173151652019,134.34000354306852L177.84346484502154,132.7147599730388L178.31519817352296,129.70809127286313L178.78693150202434,142.17180433240966L179.2586648305257,131.58337894813215L179.7303981590271,148.03736409721407L180.2021314875285,139.27618011762164L180.67386481602986,140.57458487928554L181.14559814453125,145.64439768885484L181.61733147303264,140.41471807084574L182.08906480153402,137.0901955253244L182.5607981300354,143.3413843843599L183.03253145853677,130.9621920614006L183.50426478703815,140.36160159080316L183.97599811553957,139.09820541825823L184.44773144404093,145.66957628004386L184.9194647725423,144.7131692182904L185.3911981010437,142.74185798429505L185.86293142954509,133.88911705907083L186.33466475804647,148.3411972613017L186.80639808654786,143.07925110622776L187.27813141504922,142.33979382334948L187.74986474355063,145.14155018071162L188.22159807205202,141.33211556186663L188.69333140055338,144.12971572712152L189.16506472905476,137.36707380035148L189.63679805755618,139.18864139921382L190.10853138605754,141.85415743438887L190.58026471455892,141.07638040519416L191.0519980430603,145.1727129987106L191.52373137156167,135.3956073558625L191.99546470006308,141.55353195383626L192.46719802856447,145.39019739150828L192.93893135706583,142.62781276269718L193.4106646855672,142.87301085141314L193.88239801406863,139.76907690856208L194.35413134256999,157.26323104912692L194.82586467107137,148.68483329420044L195.29759799957273,148.71899684840966L195.76933132807414,143.69911008095826L196.24106465657553,146.82782596595905L196.7127979850769,145.3406679984296L197.18453131357828,143.50964980506618L197.6562646420797,147.46439593717048L198.12799797058105,142.5123534010462L198.59973129908244,144.73305340708555L199.07146462758382,145.2621314886524L199.54319795608518,139.73246447767562L200.0149312845866,155.92767924265402L200.48666461308798,136.22841512785456L200.95839794158934,147.14509346055095L201.43013127009073,140.95591981652618L201.90186459859214,140.3743805881121L202.3735979270935,141.90246238912889L202.84533125559489,142.8028901995128L203.31706458409627,137.63227679713543L203.78879791259766,143.801307568209L204.26053124109905,146.54563604292773L204.73226456960043,137.56391519749624L205.2039978981018,139.23936073941033L205.6757312266032,136.9269140860247L206.1474645551046,148.86132487106917L206.61919788360595,154.578313702248L207.09093121210734,142.077005212022L207.56266454060872,143.77355938106987L208.0343978691101,147.98266102101437L208.5061311976115,144.46407362162324L208.97786452611285,155.97084500549383L209.44959785461427,150.2961424110242L209.92133118311565,145.7844320453307L210.393064511617,144.08654996428174L210.8647978401184,149.563186723268L211.3365311686198,142.17121798165593L211.80826449712117,142.22183384819002L212.27999782562256,146.80169886619785L212.75173115412395,146.57107331827277L213.2234644826253,145.70834441223076L213.69519781112672,143.89253684724315L214.1669311396281,148.1224884301654L214.63866446812946,155.70953951666104L215.11039779663085,157.48556145844793L215.58213112513226,146.15202223107983L216.05386445363362,146.05065253312844L216.525597782135,149.44436446758834L216.9973311106364,145.3572755212481L217.46906443913778,154.0317658173425L217.94079776763917,151.95439407936604L218.41253109614053,144.29172099125137L218.8842644246419,150.92784912010185L219.35599775314333,148.8544611181286L219.82773108164469,150.096162312786L220.29946441014607,149.59966118927125L220.77119773864746,148.0114611903881L221.24293106714885,152.77468153820521L221.71466439565023,146.70764130705754L222.18639772415162,160.62991911208462L222.65813105265298,153.55547654922054L223.1298643811544,156.603172556546L223.60159770965578,147.48095172315777L224.07333103815714,150.21498456846564L224.54506436665852,148.5920346646196L225.01679769515994,154.6311025156929L225.4885310236613,152.72949803894824L225.96026435216268,156.86742704475776L226.43199768066407,150.86007387121637L226.90373100916543,158.84151482202807L227.37546433766684,153.31462435432624L227.84719766616823,154.17343850680666L228.31893099466959,154.26221890916352L228.79066432317097,159.82706696536331L229.2623976516724,145.53538818549475L229.73413098017375,159.71378055062317L230.20586430867513,155.2307841262514L230.6775976371765,145.7256590050758L231.1493309656779,144.61500720387406L231.6210642941793,150.4137919651964L232.09279762268065,144.97799281164546L232.56453095118204,150.16079886057807L233.03626427968345,155.822946650674L233.5079976081848,151.19675992312253L233.9797309366862,151.2262844081332L234.45146426518758,147.6585815103131L234.92319759368894,147.8224320547561L235.39493092219035,157.34054312056548L235.86666425069174,158.22407023275403L236.3383975791931,152.9380147143361L236.8101309076945,151.94416743239682L237.2818642361959,153.65506994930035L237.75359756469726,151.8953106181239L238.22533089319865,153.9770110043116L238.69706422170003,154.95040499231243L239.16879755020142,163.02935262434514L239.6405308787028,157.92856669849127L240.1122642072042,150.70624302641775L240.58399753570555,155.47868977580072L241.05573086420696,153.80200254993758L241.52746419270835,153.91237445651953L241.9991975212097,144.31017379438302L242.4709308497111,151.31958316041576L242.94266417821248,155.1196706584221L243.41439750671387,148.00614954238384L243.88613083521525,154.16691966607416L244.3578641637166,151.31328851261853L244.82959749221803,158.77649887080713L245.30133082071941,142.97053477824454L245.77306414922077,154.35125799567643L246.24479747772216,145.2128607797298L246.71653080622357,147.94142676653976L247.18826413472493,152.38217144542315L247.65999746322632,147.15419914284396L248.1317307917277,156.94834344877066L248.60346412022906,158.04919974326324L249.07519744873048,137.6135135730165L249.54693077723186,152.69697281772736L250.01866410573322,151.75303433229558L250.4903974342346,142.19234385440015L250.96213076273602,156.51039117257554L251.43386409123738,153.0837228766347L251.90559741973877,156.71087139351542L252.37733074824015,151.38427144503905L252.84906407674154,147.5900991914011L253.32079740524293,148.2809066073313L253.7925307337443,156.0179772587264L254.26426406224567,147.13196955103396L254.7359973907471,152.15944438706285L255.20773071924845,159.5117999615782L255.67946404774983,144.28502969441482L256.1511973762512,150.70998532387532L256.6229307047526,158.0334027641337L257.094664033254,156.2130768492204L257.5663973617554,147.13345267352864L258.03813069025676,157.93123976810378L258.50986401875815,143.9657444634057L258.98159734725954,155.26356803162832L259.45333067576087,149.303881725242" fill="none"></path></g><g><path style="fill: none;" stroke="rgb(51, 187, 238)" stroke-width="2px" d="M29.719199695587157,-18.523465985562165L30.190933024088544,4.166169727581759L30.662666352589927,14.412476692675986L31.13439968109131,0.12824801650170609L31.606133009592693,9.564873573154886L32.077866338094076,-1.042315035241541L32.54959966659546,28.592196969805496L33.02133299509684,31.350425406509363L33.49306632359823,16.430799460631093L33.96479965209961,16.84766035530281L34.436532980600994,33.569280132235555L34.90826630910238,57.19552494638979L35.37999963760376,14.34887488150814L35.851732966105146,13.16810242840605L36.323466294606526,41.31090362477714L36.79519962310791,17.881120804338803L37.26693295160929,28.264254442373854L37.73866628011068,17.007768602288266L38.210399608612065,35.157980253820384L38.682132937113444,-10.946641546035739L39.15386626561483,38.39667139636383L39.62559959411622,45.91444686586892L40.097332922617596,41.43545142311073L40.56906625111898,46.54248025993065L41.040799579620355,32.97040906536601L41.51253290812174,21.6132433517452L41.98426623662313,52.284440734973664L42.45599956512451,52.566354728238544L42.927732893625894,50.663681023648856L43.39946622212727,58.26114845882817L43.87119955062866,56.6778117220788L44.342932879130046,43.752813075461304L44.814666207631426,49.08798409230821L45.28639953613281,45.426465073893446L45.75813286463419,21.391533784398703L46.22986619313558,13.750452200509093L46.701599521636965,62.13489195886755L47.173332850138344,61.97518036092138L47.64506617863973,44.68345519527203L48.11679950714112,31.221669679237362L48.588532835642496,47.32379263925806L49.06026616414388,29.084179743394557L49.53199949264526,35.36099557948957L50.00373282114665,59.49752075987091L50.475466149648035,41.92822749477834L50.947199478149415,30.30906646790861L51.4189328066508,27.73702164112017L51.89066613515218,79.55854604410315L52.36239946365357,53.080273918260765L52.83413279215495,52.70281924336088L53.305866120656326,54.759806669840465L53.77759944915771,61.42982242313369L54.2493327776591,83.55940693842622L54.72106610616048,52.385431029496154L55.192799434661865,52.37617013670951L55.664532763163244,53.532264121324275L56.13626609166463,66.85756787662622L56.60799942016602,72.19479112111112L57.079732748667396,90.19432787454846L57.55146607716878,72.68930899942949L58.02319940567016,35.60484851059407L58.49493273417155,56.4385116321208L58.966666062672935,74.25234765273402L59.438399391174315,67.79121073264714L59.9101327196757,73.64623342949504L60.38186604817709,84.1153019441704L60.85359937667847,69.1619608299534L61.325332705179854,81.42800470305583L61.79706603368123,70.39362507935603L62.26879936218262,83.57394498799631L62.740532690684006,85.59637221122742L63.212266019185385,63.6281721180902L63.68399934768677,77.9581706442752L64.15573267618815,56.12126138313929L64.62746600468954,63.97286013322356L65.09919933319092,86.41993633604325L65.5709326616923,56.700110296330436L66.04266599019368,69.73984398896197L66.51439931869507,77.6042389819656L66.98613264719646,88.12933848484168L67.45786597569784,75.38769516803346L67.92959930419921,93.61297696165171L68.4013326327006,68.7958882579198L68.87306596120199,81.98995291805161L69.34479928970337,72.81815095475352L69.81653261820476,84.4219633883642L70.28826594670613,89.85726241921341L70.75999927520752,80.73852519912667L71.23173260370889,93.34406615863102L71.70346593221029,96.96102251976332L72.17519926071166,85.29088346854105L72.64693258921305,88.64286102582464L73.11866591771444,89.55525728982853L73.59039924621582,88.20928913467199L74.0621325747172,102.55367049993343L74.53386590321858,108.32846661718459L75.00559923171997,87.76098949223481L75.47733256022136,91.50011375746502L75.94906588872273,93.88580251823399L76.42079921722413,79.3230227428235L76.8925325457255,100.24177570608074L77.36426587422689,78.86273740115594L77.83599920272827,86.27376254226377L78.30773253122966,98.21629600980823L78.77946585973103,109.93455031405607L79.25119918823243,91.77112852495493L79.7229325167338,92.15599881232829L80.19466584523519,92.6140594702538L80.66639917373656,85.51833582415189L81.13813250223797,104.16827352834422L81.60986583073934,104.37256502918326L82.08159915924071,93.81064614809584L82.55333248774211,98.14874495385799L83.02506581624348,78.75829798455275L83.49679914474487,73.5409317323717L83.96853247324626,93.79812583494295L84.44026580174764,87.64140842969742L84.91199913024901,55.16923470642832L85.38373245875042,77.85693891120705L85.85546578725179,94.03639118827674L86.32719911575317,105.55902853371848L86.79893244425455,109.0106167366923L87.27066577275595,102.52054168234845L87.74239910125732,103.68436170042396L88.2141324297587,96.91523542414221L88.68586575826009,90.40579354931533L89.15759908676148,104.19310720732516L89.62933241526285,86.953584504367L90.10106574376425,111.8805622375896L90.57279907226562,100.09558466669087L91.04453240076701,102.7943157475029L91.51626572926838,105.42275372031057L91.98799905776978,100.35052652528478L92.45973238627116,108.93092477101803L92.93146571477254,106.70336101203812L93.40319904327393,112.56566135647628L93.87493237177532,101.22410292027055L94.34666570027669,105.16563891480583L94.81839902877809,104.65810060063286L95.29013235727946,111.19541138187171L95.76186568578083,104.3285197402129L96.23359901428223,96.78906653843072L96.7053323427836,106.09859194641061L97.17706567128499,113.11351990777244L97.64879899978637,97.03014292626027L98.12053232828777,126.94036050482694L98.59226565678914,103.80106274602397L99.06399898529052,114.29044658975457L99.53573231379191,119.24188552951475L100.0074656422933,113.7718193480922L100.47919897079467,123.53264513471947L100.95093229929607,120.40217019745754L101.42266562779744,116.3501933138987L101.89439895629883,102.80647390283733L102.36613228480022,117.68659015528134L102.8378656133016,111.74701223062542L103.30959894180297,110.77063475202479L103.78133227030436,114.5837254402753L104.25306559880575,126.50877185887069L104.72479892730713,120.09000740354506L105.1965322558085,104.23877358367345L105.6682655843099,105.42030484363328L106.13999891281128,118.1724679827876L106.61173224131265,122.0564036385754L107.08346556981405,107.55570806061726L107.55519889831542,117.6120028902865L108.02693222681681,116.50521410581516L108.4986655553182,118.85284180442373L108.97039888381958,124.64152063804966L109.44213221232096,101.16053560032351L109.91386554082234,111.01286659575138L110.38559886932373,96.48573349704478L110.85733219782512,119.10480017241785L111.32906552632649,121.22311298949204L111.80079885482789,119.94999029267959L112.27253218332926,98.849589315043L112.74426551183065,110.58755535198199L113.21599884033203,127.74166054661194L113.68773216883342,117.1384556742187L114.15946549733479,118.75024766813372L114.6311988258362,119.09609113916414L115.10293215433757,111.35693376891024L115.57466548283895,113.96219364133569L116.04639881134032,118.8626890479641L116.51813213984173,115.11166531155553L116.9898654683431,118.09372452568553L117.46159879684447,118.71761897325044L117.93333212534587,122.15901502047583L118.40506545384724,114.87888406233002L118.87679878234863,126.606847645235L119.34853211085002,126.31153381268666L119.8202654393514,123.90042502218304L120.29199876785277,117.80415348140153L120.76373209635418,117.97788576060569L121.23546542485555,119.76573819112933L121.70719875335693,126.38389639393947L122.1789320818583,112.65792537213461L122.65066541035971,108.10154887549625L123.12239873886108,118.46783355216715L123.59413206736247,111.97229163932545L124.06586539586385,119.42993166535373L124.53759872436524,130.9129730893092L125.00933205286661,112.60087689292007L125.48106538136801,123.75925245542055L125.95279870986938,125.82541454663476L126.42453203837077,119.27051324278442L126.89626536687214,130.6726210171166L127.36799869537354,101.61528510105157L127.83973202387492,74.3116208156906L128.3114653523763,119.34189282424424L128.7831986808777,121.40477824948178L129.25493200937908,116.32541137174897L129.72666533788043,123.73221133830796L130.19839866638185,128.2788440650684L130.6701319948832,124.84945096268382L131.1418653233846,132.7729811537608L131.61359865188598,129.21176260545238L132.08533198038737,129.2942138687912L132.55706530888875,134.55597032215067L133.02879863739014,116.24130452981146L133.50053196589153,127.05223277951401L133.9722652943929,126.75307317584569L134.44399862289427,130.55010820081063L134.91573195139568,122.74984963289737L135.38746527989704,116.45480518660591L135.85919860839843,133.72468016387413L136.33093193689982,137.25685710426316L136.8026652654012,127.0054109472687L137.2743985939026,121.34017619291055L137.74613192240398,128.78095001196428L138.21786525090536,118.36915416943872L138.68959857940675,119.11928648515674L139.1613319079081,130.8612190124885L139.63306523640952,136.15308630161238L140.10479856491088,136.37765864028586L140.57653189341227,134.35059234785624L141.04826522191365,135.98663166999847L141.51999855041504,132.26397696270354L141.99173187891643,124.88464925351721L142.46346520741778,129.69108710100534L142.9351985359192,118.64082427012396L143.40693186442059,131.791636939364L143.87866519292194,122.05554135805525L144.35039852142333,133.91550284298808L144.82213184992474,135.07783973856888L145.2938651784261,128.05444418249897L145.7655985069275,125.20853906250406L146.23733183542888,136.1526724069627L146.70906516393026,117.87915464104604L147.18079849243165,134.19574401204383L147.652531820933,132.1219766066417L148.1242651494344,135.1442525842325L148.5959984779358,134.37227008013335L149.06773180643717,135.85672048682943L149.53946513493855,130.41919677223817L150.01119846343994,128.90197970577557L150.48293179194133,138.8757715352748L150.9546651204427,129.8483325766638L151.4263984489441,139.73396484578072L151.89813177744546,141.62484255285446L152.36986510594687,139.04343335961696L152.84159843444826,138.90055347742452L153.31333176294962,133.08686850871365L153.785065091451,116.64274784878249L154.25679841995242,132.66172972104826L154.72853174845378,136.00344614014182L155.20026507695516,119.92012089546084L155.67199840545655,134.6394390765033L156.1437317339579,135.57318540618664L156.61546506245932,134.85688897808015L157.0871983909607,125.0163194889474L157.55893171946207,134.16216680858835L158.03066504796345,140.93260375126076L158.50239837646487,129.78817988757666L158.97413170496623,148.0365707991355L159.4458650334676,135.7494010532889L159.91759836196897,142.1136693797397L160.38933169047039,136.04326625456335L160.86106501897177,141.29624469222748L161.33279834747313,140.67366091105325L161.80453167597452,128.08681419322622L162.27626500447593,141.56260314490848L162.7479983329773,127.40204274093719L163.21973166147868,131.66112215983082L163.69146498998006,134.8004268496193L164.16319831848142,136.8423416126063L164.63493164698284,144.69920027386362L165.10666497548422,143.30075372624944L165.57839830398558,142.41907189437404L166.05013163248697,143.98317977552358L166.52186496098838,129.15480035428985L166.99359828948974,150.0524274448029L167.46533161799113,141.94286885430412L167.9370649464925,138.37275157102752L168.4087982749939,139.22042505918736L168.88053160349529,148.3377653848314L169.35226493199667,133.35381331214833L169.82399826049803,147.8938116362159L170.29573158899944,142.73471830158803L170.76746491750083,139.169498771666L171.2391982460022,140.07796303649795L171.71093157450358,139.19859211641662L172.18266490300496,134.25779371827537L172.65439823150635,144.07803063274244L173.12613156000774,144.32583280862934L173.5978648885091,138.88905065528544L174.0695982170105,137.315457688414L174.5413315455119,152.0481412175191L175.01306487401325,136.02677945101766L175.48479820251464,141.31009291738144L175.95653153101605,144.41176768526964L176.4282648595174,131.05036886739333L176.8999981880188,144.58187838628908L177.37173151652019,139.39626130286072L177.84346484502154,145.28129136181062L178.31519817352296,144.12319688638902L178.78693150202434,146.8411223315801L179.2586648305257,136.63863646252096L179.7303981590271,142.15305835390112L180.2021314875285,137.12342781657182L180.67386481602986,143.22794275912614L181.14559814453125,148.80765653149368L181.61733147303264,151.8485750139306L182.08906480153402,139.85239045242108L182.5607981300354,142.384787620892L183.03253145853677,148.37955149883894L183.50426478703815,142.3072513565182L183.97599811553957,146.56195039036936L184.44773144404093,151.5118372251932L184.9194647725423,149.56185881126692L185.3911981010437,148.67012278852633L185.86293142954509,148.79806797210938L186.33466475804647,149.8146449685604L186.80639808654786,140.6065065041423L187.27813141504922,148.80841533835144L187.74986474355063,143.8546309955764L188.22159807205202,148.0728383178139L188.69333140055338,154.67059496351678L189.16506472905476,165.02268650282565L189.63679805755618,147.184551417154L190.10853138605754,139.16511838662356L190.58026471455892,148.450344729545L191.0519980430603,146.14205426826663L191.52373137156167,144.35987564356572L191.99546470006308,153.91851389382316L192.46719802856447,147.95958639429458L192.93893135706583,148.4498963436745L193.4106646855672,151.86652769436057L193.88239801406863,151.0487236034195L194.35413134256999,141.56989803810913L194.82586467107137,157.91485643822054L195.29759799957273,137.42562264767113L195.76933132807414,149.19614839705176L196.24106465657553,146.37638762242844L196.7127979850769,150.09326505023822L197.18453131357828,157.28158037859615L197.6562646420797,149.15582815992855L198.12799797058105,152.20169613255123L198.59973129908244,145.34642803230437L199.07146462758382,156.03254979951728L199.54319795608518,159.13208611171547L200.0149312845866,148.91406194768285L200.48666461308798,149.57715566769477L200.95839794158934,155.67254768234568L201.43013127009073,153.23731228288764L201.90186459859214,155.4906237381999L202.3735979270935,153.75799175218802L202.84533125559489,153.58829494581826L203.31706458409627,150.463148902171L203.78879791259766,154.8843887956881L204.26053124109905,151.72314768946646L204.73226456960043,150.89580677597226L205.2039978981018,159.27656983567542L205.6757312266032,155.2136937263416L206.1474645551046,151.0361860446562L206.61919788360595,155.79742314727693L207.09093121210734,146.2755870296204L207.56266454060872,162.04059279747483L208.0343978691101,150.4646147790553L208.5061311976115,153.87519292048975L208.97786452611285,149.15974291349013L209.44959785461427,153.94241630984232L209.92133118311565,153.74509203560626L210.393064511617,147.86621865957042L210.8647978401184,155.4689460059228L211.3365311686198,151.81520475779996L211.80826449712117,149.5179687327902L212.27999782562256,152.58377263103924L212.75173115412395,153.48068233690086L213.2234644826253,162.08151663096217L213.69519781112672,154.24233472036838L214.1669311396281,156.89388181111664L214.63866446812946,162.51008729509783L215.11039779663085,158.5250233799043L215.58213112513226,156.02096074932618L216.05386445363362,150.42926127772827L216.525597782135,154.1354464270879L216.9973311106364,149.9598702537677L217.46906443913778,153.22775821472416L217.94079776763917,148.83735347260838L218.41253109614053,154.10355929345198L218.8842644246419,151.5343944836009L219.35599775314333,151.42795457619093L219.82773108164469,164.84812643432213L220.29946441014607,158.2263638989377L220.77119773864746,160.3809787259111L221.24293106714885,157.70271818464792L221.71466439565023,163.97444656567393L222.18639772415162,160.23161449420698L222.65813105265298,154.33434005187067L223.1298643811544,159.5282695195135L223.60159770965578,158.79567598957576L224.07333103815714,153.25869683978792L224.54506436665852,148.64140884720462L225.01679769515994,162.03843709617442L225.4885310236613,158.64075867132172L225.96026435216268,162.2087892357395L226.43199768066407,164.1361586544269L226.90373100916543,159.410223316302L227.37546433766684,155.88104711212316L227.84719766616823,163.86683395675652L228.31893099466959,156.60700108205558L228.79066432317097,162.91837712139906L229.2623976516724,164.48312309013352L229.73413098017375,167.42605201425815L230.20586430867513,155.54787916473927L230.6775976371765,164.54018881495847L231.1493309656779,158.41696238511642L231.6210642941793,154.90977433420196L232.09279762268065,163.58688596307763L232.56453095118204,152.44487648485003L233.03626427968345,151.82465535230105L233.5079976081848,154.45054097476898L233.9797309366862,168.39656598532162L234.45146426518758,165.70133576342147L234.92319759368894,168.8765285684595L235.39493092219035,169.77285192356737L235.86666425069174,157.03429557102137L236.3383975791931,156.58440933242707L236.8101309076945,154.8758522185384L237.2818642361959,160.89703637162336L237.75359756469726,149.98085816162867L238.22533089319865,165.1959014137177L238.69706422170003,165.56164631915368L239.16879755020142,160.74115329918675L239.6405308787028,162.88274769030556L240.1122642072042,162.1540171770982L240.58399753570555,162.95892155145754L241.05573086420696,164.83560612116923L241.52746419270835,161.32788345633227L241.9991975212097,161.71680646215043L242.4709308497111,159.3403096117265L242.94266417821248,159.78052106288445L243.41439750671387,152.56269849512626L243.88613083521525,158.21805151472324L244.3578641637166,154.86043464283773L244.82959749221803,160.01761371471082L245.30133082071941,154.5788310705601L245.77306414922077,156.4544636580372L246.24479747772216,172.9963669289558L246.71653080622357,159.12304941186406L247.18826413472493,155.80868453087035L247.65999746322632,142.77838418712952L248.1317307917277,157.1957662212287L248.60346412022906,160.3718902892285L249.07519744873048,168.3775095858258L249.54693077723186,158.14717205596514L250.01866410573322,161.18038175055173L250.4903974342346,162.59909189038993L250.96213076273602,154.09191850642966L251.43386409123738,153.55307940937448L251.90559741973877,161.70232014941155L252.37733074824015,166.9849437913592" fill="none"></path></g></g></g></g></g></g><g transform="translate(46, 173)" clip-path="url(#clip_1)"><clipPath id="clip_1"><rect width="283" height="26"></rect></clipPath><g><g><line x1="0" y1="0" x2="0" y2="5" style="visibility: inherit;" fill="rgb(0, 0, 0)" stroke="rgb(204, 204, 204)" stroke-width="1px"></line><line x1="23.586666425069172" y1="0" x2="23.586666425069172" y2="5" style="visibility: inherit;" fill="rgb(0, 0, 0)" stroke="rgb(204, 204, 204)" stroke-width="1px"></line><line x1="47.173332850138344" y1="0" x2="47.173332850138344" y2="5" style="visibility: inherit;" fill="rgb(0, 0, 0)" stroke="rgb(204, 204, 204)" stroke-width="1px"></line><line x1="70.75999927520752" y1="0" x2="70.75999927520752" y2="5" style="visibility: inherit;" fill="rgb(0, 0, 0)" stroke="rgb(204, 204, 204)" stroke-width="1px"></line><line x1="94.34666570027669" y1="0" x2="94.34666570027669" y2="5" style="visibility: inherit;" fill="rgb(0, 0, 0)" stroke="rgb(204, 204, 204)" stroke-width="1px"></line><line x1="117.93333212534587" y1="0" x2="117.93333212534587" y2="5" style="visibility: inherit;" fill="rgb(0, 0, 0)" stroke="rgb(204, 204, 204)" stroke-width="1px"></line><line x1="141.51999855041504" y1="0" x2="141.51999855041504" y2="5" style="visibility: inherit;" fill="rgb(0, 0, 0)" stroke="rgb(204, 204, 204)" stroke-width="1px"></line><line x1="165.10666497548422" y1="0" x2="165.10666497548422" y2="5" style="visibility: inherit;" fill="rgb(0, 0, 0)" stroke="rgb(204, 204, 204)" stroke-width="1px"></line><line x1="188.69333140055338" y1="0" x2="188.69333140055338" y2="5" style="visibility: inherit;" fill="rgb(0, 0, 0)" stroke="rgb(204, 204, 204)" stroke-width="1px"></line><line x1="212.27999782562256" y1="0" x2="212.27999782562256" y2="5" style="visibility: inherit;" fill="rgb(0, 0, 0)" stroke="rgb(204, 204, 204)" stroke-width="1px"></line><line x1="235.86666425069174" y1="0" x2="235.86666425069174" y2="5" style="visibility: inherit;" fill="rgb(0, 0, 0)" stroke="rgb(204, 204, 204)" stroke-width="1px"></line><line x1="259.45333067576087" y1="0" x2="259.45333067576087" y2="5" style="visibility: inherit;" fill="rgb(0, 0, 0)" stroke="rgb(204, 204, 204)" stroke-width="1px"></line><line x1="283.0399971008301" y1="0" x2="283.0399971008301" y2="5" style="visibility: inherit;" fill="rgb(0, 0, 0)" stroke="rgb(204, 204, 204)" stroke-width="1px"></line></g><g transform="translate(0, 8)"><text style="text-anchor: middle; visibility: hidden; font-family: Roboto, sans-serif; font-size: 12px; font-weight: 200;" x="0" y="0" dx="0em" dy="0.95em" fill="rgb(33, 33, 33)" stroke="none" stroke-width="1px">-50</text><text style="text-anchor: middle; visibility: inherit; font-family: Roboto, sans-serif; font-size: 12px; font-weight: 200;" x="23.586666425069172" y="0" dx="0em" dy="0.95em" fill="rgb(33, 33, 33)" stroke="none" stroke-width="1px">0</text><text style="text-anchor: middle; visibility: hidden; font-family: Roboto, sans-serif; font-size: 12px; font-weight: 200;" x="47.173332850138344" y="0" dx="0em" dy="0.95em" fill="rgb(33, 33, 33)" stroke="none" stroke-width="1px">50</text><text style="text-anchor: middle; visibility: inherit; font-family: Roboto, sans-serif; font-size: 12px; font-weight: 200;" x="70.75999927520752" y="0" dx="0em" dy="0.95em" fill="rgb(33, 33, 33)" stroke="none" stroke-width="1px">100</text><text style="text-anchor: middle; visibility: hidden; font-family: Roboto, sans-serif; font-size: 12px; font-weight: 200;" x="94.34666570027669" y="0" dx="0em" dy="0.95em" fill="rgb(33, 33, 33)" stroke="none" stroke-width="1px">150</text><text style="text-anchor: middle; visibility: inherit; font-family: Roboto, sans-serif; font-size: 12px; font-weight: 200;" x="117.93333212534587" y="0" dx="0em" dy="0.95em" fill="rgb(33, 33, 33)" stroke="none" stroke-width="1px">200</text><text style="text-anchor: middle; visibility: hidden; font-family: Roboto, sans-serif; font-size: 12px; font-weight: 200;" x="141.51999855041504" y="0" dx="0em" dy="0.95em" fill="rgb(33, 33, 33)" stroke="none" stroke-width="1px">250</text><text style="text-anchor: middle; visibility: inherit; font-family: Roboto, sans-serif; font-size: 12px; font-weight: 200;" x="165.10666497548422" y="0" dx="0em" dy="0.95em" fill="rgb(33, 33, 33)" stroke="none" stroke-width="1px">300</text><text style="text-anchor: middle; visibility: hidden; font-family: Roboto, sans-serif; font-size: 12px; font-weight: 200;" x="188.69333140055338" y="0" dx="0em" dy="0.95em" fill="rgb(33, 33, 33)" stroke="none" stroke-width="1px">350</text><text style="text-anchor: middle; visibility: inherit; font-family: Roboto, sans-serif; font-size: 12px; font-weight: 200;" x="212.27999782562256" y="0" dx="0em" dy="0.95em" fill="rgb(33, 33, 33)" stroke="none" stroke-width="1px">400</text><text style="text-anchor: middle; visibility: hidden; font-family: Roboto, sans-serif; font-size: 12px; font-weight: 200;" x="235.86666425069174" y="0" dx="0em" dy="0.95em" fill="rgb(33, 33, 33)" stroke="none" stroke-width="1px">450</text><text style="text-anchor: middle; visibility: inherit; font-family: Roboto, sans-serif; font-size: 12px; font-weight: 200;" x="259.45333067576087" y="0" dx="0em" dy="0.95em" fill="rgb(33, 33, 33)" stroke="none" stroke-width="1px">500</text><text style="text-anchor: middle; visibility: hidden; font-family: Roboto, sans-serif; font-size: 12px; font-weight: 200;" x="283.0399971008301" y="0" dx="0em" dy="0.95em" fill="rgb(33, 33, 33)" stroke="none" stroke-width="1px">550</text></g><line x1="0" y1="0" x2="283.0399971008301" y2="0" fill="rgb(0, 0, 0)" stroke="rgb(204, 204, 204)" stroke-width="1px"></line></g></g></g></g></svg>